<?xml version="1.0" encoding="UTF-8" standalone="no"?>
<!-- Created with Inkscape (http://www.inkscape.org/) -->

<svg
   xmlns:dc="http://purl.org/dc/elements/1.1/"
   xmlns:cc="http://creativecommons.org/ns#"
   xmlns:rdf="http://www.w3.org/1999/02/22-rdf-syntax-ns#"
   xmlns:svg="http://www.w3.org/2000/svg"
   xmlns="http://www.w3.org/2000/svg"
   xmlns:sodipodi="http://sodipodi.sourceforge.net/DTD/sodipodi-0.dtd"
   xmlns:inkscape="http://www.inkscape.org/namespaces/inkscape"
   width="744.09448819"
   height="1052.3622047"
   id="svg2"
   version="1.1"
   inkscape:version="0.48.3.1 r9886"
   sodipodi:docname="logo_for_now.svg">
  <defs
     id="defs4" />
  <sodipodi:namedview
     id="base"
     pagecolor="#ffffff"
     bordercolor="#666666"
     borderopacity="1.0"
     inkscape:pageopacity="0.0"
     inkscape:pageshadow="2"
     inkscape:zoom="1.0074671"
     inkscape:cx="221.31214"
     inkscape:cy="865.65022"
     inkscape:document-units="px"
     inkscape:current-layer="layer1"
     showgrid="false"
     inkscape:window-width="1366"
     inkscape:window-height="722"
     inkscape:window-x="0"
     inkscape:window-y="24"
     inkscape:window-maximized="1" />
  <metadata
     id="metadata7">
    <rdf:RDF>
      <cc:Work
         rdf:about="">
        <dc:format>image/svg+xml</dc:format>
        <dc:type
           rdf:resource="http://purl.org/dc/dcmitype/StillImage" />
        <dc:title></dc:title>
      </cc:Work>
    </rdf:RDF>
  </metadata>
  <g
     inkscape:label="Layer 1"
     inkscape:groupmode="layer"
     id="layer1">
    <g
       id="g3859"
       transform="translate(-209.43613,-172.71037)">
      <path
         transform="matrix(0.2676858,-0.19004146,0.19004146,0.2676858,317.27192,256.19817)"
         d="m 299.80505,269.50504 c 0,69.32241 -56.19692,125.51933 -125.51933,125.51933 -69.32241,0 -125.519332,-56.19692 -125.519332,-125.51933 0,-69.32242 56.196922,-125.51934 125.519332,-125.51934 69.32241,0 125.51933,56.19692 125.51933,125.51934 z"
         sodipodi:ry="125.51933"
         sodipodi:rx="125.51933"
         sodipodi:cy="269.50504"
         sodipodi:cx="174.28572"
         id="path2987"
         style="fill:none;stroke:#000000;stroke-width:8;stroke-linecap:butt;stroke-linejoin:miter;stroke-miterlimit:4;stroke-opacity:1;stroke-dasharray:none"
         sodipodi:type="arc" />
      <g
         style="fill:none;stroke:#000000;stroke-opacity:1"
         transform="matrix(0.29544189,-0.14312769,0.14312769,0.29544189,267.48059,259.24192)"
         id="g3834">
        <path
           style="fill:none;stroke:#000000;stroke-width:7.6036849;stroke-linecap:round;stroke-linejoin:miter;stroke-miterlimit:4;stroke-opacity:1;stroke-dasharray:none"
           d="m 263.91231,293.99162 c 8.76575,4.14283 18.19882,7.54696 30.29783,8 l 64.71879,0"
           id="path3776"
           inkscape:connector-curvature="0"
           sodipodi:nodetypes="ccc" />
        <path
           sodipodi:type="arc"
           style="fill:none;stroke:#000000;stroke-width:8;stroke-linecap:round;stroke-miterlimit:4;stroke-opacity:1;stroke-dasharray:none"
           id="path3813"
           sodipodi:cx="38.146549"
           sodipodi:cy="300.59604"
           sodipodi:rx="6.9780273"
           sodipodi:ry="6.9780273"
           d="m 45.124577,300.59604 c 0,3.85386 -3.12417,6.97803 -6.978028,6.97803 -3.853858,0 -6.978027,-3.12417 -6.978027,-6.97803 0,-3.85386 3.124169,-6.97803 6.978027,-6.97803 3.853858,0 6.978028,3.12417 6.978028,6.97803 z"
           transform="matrix(0.66099423,0,0,0.66099423,273.30573,117.25545)" />
        <path
           sodipodi:nodetypes="ccc"
           inkscape:connector-curvature="0"
           id="path3827"
           d="m 453.21835,293.79745 c -8.76575,4.14283 -18.19882,7.54696 -30.29783,8 l -64.71879,0"
           style="fill:none;stroke:#000000;stroke-width:7.6036849;stroke-linecap:round;stroke-linejoin:miter;stroke-miterlimit:4;stroke-opacity:1;stroke-dasharray:none" />
        <path
           transform="matrix(-0.66099423,0,0,0.66099423,443.82492,117.06128)"
           d="m 45.124577,300.59604 c 0,3.85386 -3.12417,6.97803 -6.978028,6.97803 -3.853858,0 -6.978027,-3.12417 -6.978027,-6.97803 0,-3.85386 3.124169,-6.97803 6.978027,-6.97803 3.853858,0 6.978028,3.12417 6.978028,6.97803 z"
           sodipodi:ry="6.9780273"
           sodipodi:rx="6.9780273"
           sodipodi:cy="300.59604"
           sodipodi:cx="38.146549"
           id="path3829"
           style="fill:none;stroke:#000000;stroke-width:8;stroke-linecap:round;stroke-miterlimit:4;stroke-opacity:1;stroke-dasharray:none"
           sodipodi:type="arc" />
      </g>
    </g>
  </g>
</svg>
